<svg width="19" height="19" viewBox="0 0 19 19" fill="none" xmlns="http://www.w3.org/2000/svg">
<path d="M6.33301 12.6663L12.6663 6.33301M6.72869 6.7288H7.20369M6.72869 7.2038H7.20369M11.7954 11.7955H12.2704M11.7954 12.2705H12.2704M16.1636 7.29593C15.9312 6.98573 15.802 6.64967 15.7504 6.26192L15.5437 4.84015C15.4404 4.09049 14.8463 3.49593 14.0715 3.36668L12.6508 3.15988C12.2892 3.10818 11.9276 2.95308 11.6177 2.74627L10.507 1.91906C10.1971 1.68641 9.83545 1.58301 9.47385 1.58301C9.11224 1.58301 8.75063 1.68641 8.44067 1.91906L7.30419 2.77212C6.99424 3.00478 6.65846 3.13403 6.27102 3.18573L4.87624 3.39253C4.12719 3.49593 3.53312 4.09049 3.40397 4.866L3.19734 6.28777C3.14568 6.64967 2.9907 7.01158 2.78407 7.32178L1.9317 8.4592C1.46678 9.07961 1.46678 9.93267 1.9317 10.5272L2.78407 11.6646C3.01653 11.9748 3.14568 12.3109 3.19734 12.6987L3.40397 14.1204C3.50729 14.8701 4.10136 15.4646 4.87624 15.5939L6.29685 15.8007C6.65846 15.8524 7.02007 16.0075 7.33002 16.2143L8.4665 17.0674C9.08641 17.5327 9.93877 17.5327 10.5328 17.0674L11.6693 16.2143C11.9793 15.9816 12.3151 15.8524 12.7025 15.8007L14.1231 15.5939C14.8722 15.4905 15.4662 14.8959 15.5954 14.1204L15.802 12.6987C15.8537 12.3367 16.0086 11.9748 16.2153 11.6646L17.0676 10.5272C17.5326 9.90682 17.5326 9.05376 17.0676 8.4592L16.1636 7.29593ZM7.59967 6.96634C7.59967 7.31612 7.31612 7.59967 6.96634 7.59967C6.61656 7.59967 6.33301 7.31612 6.33301 6.96634C6.33301 6.61656 6.61656 6.33301 6.96634 6.33301C7.31612 6.33301 7.59967 6.61656 7.59967 6.96634ZM12.6663 12.033C12.6663 12.3828 12.3828 12.6663 12.033 12.6663C11.6832 12.6663 11.3997 12.3828 11.3997 12.033C11.3997 11.6832 11.6832 11.3997 12.033 11.3997C12.3828 11.3997 12.6663 11.6832 12.6663 12.033Z" stroke="black" stroke-width="1.25" stroke-linecap="round"/>
</svg>
