<svg width="19" height="19" viewBox="0 0 19 19" fill="none" xmlns="http://www.w3.org/2000/svg">
<path d="M4.30826 13.2091L4.06463 13.7847L4.06463 13.7847L4.30826 13.2091ZM4.30826 7.37419L4.55189 7.94975L4.55189 7.94975L4.30826 7.37419ZM4.90025 7.2696L4.78163 7.88324L4.78163 7.88324L4.90025 7.2696ZM5.40723 7.60552L5.92609 7.25709L5.92609 7.25709L5.40723 7.60552ZM4.90025 13.3137L4.78163 12.7001L4.78163 12.7001L4.90025 13.3137ZM5.40723 12.9778L4.88836 12.6294L4.88836 12.6294L5.40723 12.9778ZM14.6917 13.2091L14.9354 13.7847L14.9354 13.7847L14.6917 13.2091ZM14.6917 7.37419L14.4481 7.94975L14.4481 7.94975L14.6917 7.37419ZM14.0998 7.2696L14.2184 7.88324L14.2184 7.88324L14.0998 7.2696ZM13.5928 7.60552L13.0739 7.25709L13.0739 7.25709L13.5928 7.60552ZM14.0998 13.3137L14.2184 12.7001L14.2184 12.7001L14.0998 13.3137ZM13.5928 12.9778L14.1116 12.6294L14.1116 12.6294L13.5928 12.9778ZM15.6667 13.4583C15.6667 13.1132 15.3868 12.8333 15.0417 12.8333C14.6965 12.8333 14.4167 13.1132 14.4167 13.4583H15.0417H15.6667ZM9.5 15.2083C9.15482 15.2083 8.875 15.4882 8.875 15.8333C8.875 16.1785 9.15482 16.4583 9.5 16.4583V15.8333V15.2083ZM4.30826 13.2091L4.55189 12.6336C3.63874 12.2471 3 11.3432 3 10.2917H2.375H1.75C1.75 11.8628 2.7055 13.2094 4.06463 13.7847L4.30826 13.2091ZM2.375 10.2917H3C3 9.2401 3.63874 8.33627 4.55189 7.94975L4.30826 7.37419L4.06463 6.79863C2.7055 7.37393 1.75 8.72049 1.75 10.2917H2.375ZM5.54167 12.1917H6.16667V8.39167H5.54167H4.91667V12.1917H5.54167ZM4.30826 7.37419L4.55189 7.94975C4.61424 7.92336 4.6535 7.90685 4.68727 7.89416C4.71876 7.88232 4.73253 7.87886 4.73727 7.87783C4.73963 7.87731 4.73868 7.87753 4.73894 7.87753C4.74073 7.87754 4.75296 7.8777 4.78163 7.88324L4.90025 7.2696L5.01887 6.65596C4.83053 6.61955 4.65512 6.61642 4.47128 6.65645C4.3139 6.69073 4.16739 6.75513 4.06463 6.79863L4.30826 7.37419ZM5.54167 8.39167H6.16667C6.16667 8.05165 6.18663 7.64506 5.92609 7.25709L5.40723 7.60552L4.88836 7.95396C4.89401 7.96237 4.89953 7.96738 4.90564 8.01201C4.91537 8.083 4.91667 8.18077 4.91667 8.39167H5.54167ZM4.90025 7.2696L4.78163 7.88324C4.77444 7.88185 4.76927 7.88053 4.76626 7.87971C4.76322 7.87887 4.76167 7.87833 4.76166 7.87833C4.76163 7.87832 4.76269 7.87869 4.76484 7.87956C4.76698 7.88043 4.76991 7.88168 4.77359 7.88338C4.78954 7.89074 4.81132 7.90265 4.83512 7.91842C4.85892 7.93419 4.87837 7.94961 4.89136 7.96142C4.89437 7.96415 4.89666 7.96636 4.8983 7.96799C4.89994 7.96963 4.90069 7.97046 4.90067 7.97044C4.90066 7.97043 4.89956 7.96921 4.89761 7.96673C4.89567 7.96429 4.89245 7.96004 4.88836 7.95396L5.40723 7.60552L5.92609 7.25709C5.81482 7.09139 5.65379 6.96137 5.52556 6.87641C5.39734 6.79144 5.21483 6.69384 5.01887 6.65596L4.90025 7.2696ZM4.30826 13.2091L4.06463 13.7847C4.16739 13.8282 4.3139 13.8926 4.47128 13.9269C4.65512 13.9669 4.83053 13.9638 5.01887 13.9274L4.90025 13.3137L4.78163 12.7001C4.75296 12.7056 4.74073 12.7058 4.73894 12.7058C4.73868 12.7058 4.73963 12.706 4.73727 12.7055C4.73253 12.7045 4.71876 12.701 4.68726 12.6892C4.6535 12.6765 4.61424 12.66 4.55189 12.6336L4.30826 13.2091ZM5.54167 12.1917H4.91667C4.91667 12.4026 4.91537 12.5003 4.90564 12.5713C4.89953 12.6159 4.89401 12.621 4.88836 12.6294L5.40723 12.9778L5.92609 13.3262C6.18663 12.9383 6.16667 12.5317 6.16667 12.1917H5.54167ZM4.90025 13.3137L5.01887 13.9274C5.21483 13.8895 5.39734 13.7919 5.52556 13.7069C5.65379 13.622 5.81482 13.4919 5.92609 13.3262L5.40723 12.9778L4.88836 12.6294C4.89245 12.6233 4.89567 12.619 4.89761 12.6166C4.89956 12.6141 4.90066 12.6129 4.90067 12.6129C4.90069 12.6129 4.89994 12.6137 4.8983 12.6153C4.89666 12.617 4.89437 12.6192 4.89136 12.6219C4.87837 12.6337 4.85892 12.6491 4.83512 12.6649C4.81131 12.6807 4.78954 12.6926 4.77359 12.7C4.76991 12.7017 4.76698 12.7029 4.76484 12.7038C4.76269 12.7046 4.76163 12.705 4.76166 12.705C4.76167 12.705 4.76322 12.7045 4.76626 12.7036C4.76927 12.7028 4.77444 12.7015 4.78163 12.7001L4.90025 13.3137ZM14.6917 13.2091L14.9354 13.7847C16.2945 13.2094 17.25 11.8628 17.25 10.2917H16.625H16C16 11.3432 15.3613 12.2471 14.4481 12.6336L14.6917 13.2091ZM16.625 10.2917H17.25C17.25 8.72049 16.2945 7.37393 14.9354 6.79863L14.6917 7.37419L14.4481 7.94975C15.3613 8.33627 16 9.2401 16 10.2917H16.625ZM13.4583 12.1917H14.0833V8.39167H13.4583H12.8333V12.1917H13.4583ZM14.6917 7.37419L14.9354 6.79863C14.8326 6.75513 14.6861 6.69073 14.5287 6.65645C14.3449 6.61642 14.1695 6.61955 13.9811 6.65596L14.0998 7.2696L14.2184 7.88324C14.247 7.8777 14.2593 7.87754 14.2611 7.87753C14.2613 7.87753 14.2604 7.87731 14.2627 7.87783C14.2675 7.87886 14.2812 7.88232 14.3127 7.89416C14.3465 7.90685 14.3858 7.92336 14.4481 7.94975L14.6917 7.37419ZM13.4583 8.39167H14.0833C14.0833 8.18077 14.0846 8.083 14.0944 8.012C14.1005 7.96738 14.106 7.96237 14.1116 7.95396L13.5928 7.60552L13.0739 7.25709C12.8134 7.64506 12.8333 8.05166 12.8333 8.39167H13.4583ZM14.0998 7.2696L13.9811 6.65596C13.7852 6.69384 13.6027 6.79144 13.4744 6.87641C13.3462 6.96137 13.1852 7.09139 13.0739 7.25709L13.5928 7.60552L14.1116 7.95396C14.1076 7.96004 14.1043 7.96429 14.1024 7.96673C14.1004 7.96921 14.0993 7.97043 14.0993 7.97044C14.0993 7.97046 14.1001 7.96963 14.1017 7.96799C14.1033 7.96636 14.1056 7.96415 14.1086 7.96142C14.1216 7.94961 14.1411 7.93419 14.1649 7.91842C14.1887 7.90265 14.2105 7.89074 14.2264 7.88338C14.2301 7.88168 14.233 7.88043 14.2352 7.87956C14.2373 7.87869 14.2384 7.87832 14.2383 7.87833C14.2383 7.87833 14.2368 7.87887 14.2337 7.87971C14.2307 7.88053 14.2256 7.88185 14.2184 7.88324L14.0998 7.2696ZM14.6917 13.2091L14.4481 12.6336C14.3858 12.66 14.3465 12.6765 14.3127 12.6892C14.2812 12.701 14.2675 12.7045 14.2627 12.7055C14.2604 12.706 14.2613 12.7058 14.2611 12.7058C14.2593 12.7058 14.247 12.7056 14.2184 12.7001L14.0998 13.3137L13.9811 13.9274C14.1695 13.9638 14.3449 13.9669 14.5287 13.9269C14.6861 13.8926 14.8326 13.8282 14.9354 13.7847L14.6917 13.2091ZM13.4583 12.1917H12.8333C12.8333 12.5317 12.8134 12.9383 13.0739 13.3262L13.5928 12.9778L14.1116 12.6294C14.106 12.621 14.1005 12.6159 14.0944 12.5713C14.0846 12.5003 14.0833 12.4026 14.0833 12.1917H13.4583ZM14.0998 13.3137L14.2184 12.7001C14.2256 12.7015 14.2307 12.7028 14.2337 12.7036C14.2368 12.7045 14.2383 12.705 14.2383 12.705C14.2384 12.705 14.2373 12.7046 14.2352 12.7038C14.233 12.7029 14.2301 12.7017 14.2264 12.7C14.2105 12.6926 14.1887 12.6807 14.1649 12.6649C14.1411 12.6491 14.1216 12.6337 14.1086 12.6219C14.1056 12.6192 14.1033 12.617 14.1017 12.6153C14.1001 12.6137 14.0993 12.6129 14.0993 12.6129C14.0993 12.6129 14.1004 12.6141 14.1024 12.6166C14.1043 12.619 14.1076 12.6233 14.1116 12.6294L13.5928 12.9778L13.0739 13.3262C13.1852 13.4919 13.3462 13.622 13.4744 13.7069C13.6027 13.7919 13.7852 13.8895 13.9811 13.9274L14.0998 13.3137ZM3.95833 7.91667H4.58333C4.58333 5.20127 6.7846 3 9.5 3V2.375V1.75C6.09424 1.75 3.33333 4.51091 3.33333 7.91667H3.95833ZM9.5 2.375V3C12.2154 3 14.4167 5.20127 14.4167 7.91667H15.0417H15.6667C15.6667 4.51091 12.9058 1.75 9.5 1.75V2.375ZM15.0417 13.4583H14.4167V14.25H15.0417H15.6667V13.4583H15.0417ZM13.4583 15.8333V15.2083H9.5V15.8333V16.4583H13.4583V15.8333ZM15.0417 14.25H14.4167C14.4167 14.7793 13.9876 15.2083 13.4583 15.2083V15.8333V16.4583C14.678 16.4583 15.6667 15.4696 15.6667 14.25H15.0417Z" fill="black"/>
</svg>
