<svg width="26" height="26" viewBox="0 0 26 26" fill="none" xmlns="http://www.w3.org/2000/svg">
<path d="M12.4584 8.775V12.4583L14.0533 13.3792M3.48886 14.5511C3.33261 13.8788 3.25 13.1782 3.25 12.4583C3.25 11.7385 3.33261 11.0379 3.48886 10.3655M10.7841 3.40183C11.327 3.30211 11.8866 3.25 12.4583 3.25C17.544 3.25 21.6667 7.37271 21.6667 12.4583C21.6667 17.544 17.544 21.6667 12.4583 21.6667C11.8866 21.6667 11.327 21.6146 10.7841 21.5148M7.85417 4.48191C6.59817 5.20846 5.52971 6.22316 4.73918 7.43561M4.73918 17.4811C5.52971 18.6935 6.59817 19.7082 7.85417 20.4348" stroke="#F59E0B" stroke-width="1.5" stroke-linecap="round"/>
</svg>
