<svg width="24" height="18" viewBox="0 0 24 18" fill="none" xmlns="http://www.w3.org/2000/svg">
<path d="M13.75 14.2917V1.29167C13.75 0.992512 13.5075 0.75 13.2083 0.75H1.29167C0.992512 0.75 0.75 0.992513 0.75 1.29167V14.2917C0.75 14.5908 0.992512 14.8333 1.29167 14.8333H2.91667M13.75 14.2917C13.75 14.5908 13.5075 14.8333 13.2083 14.8333H7.25M13.75 14.2917V4.54167C13.75 4.24251 13.9925 4 14.2917 4H17.859C18.0026 4 18.1404 4.05707 18.242 4.15865L22.258 8.17468C22.3596 8.27627 22.4167 8.41404 22.4167 8.5577V14.2917C22.4167 14.5908 22.1742 14.8333 21.875 14.8333H20.25M13.75 14.2917C13.75 14.5908 13.9925 14.8333 14.2917 14.8333H15.9167M2.91667 14.8333C2.91667 16.03 3.88672 17 5.08333 17C6.27995 17 7.25 16.03 7.25 14.8333M2.91667 14.8333C2.91667 13.6367 3.88672 12.6667 5.08333 12.6667C6.27995 12.6667 7.25 13.6367 7.25 14.8333M15.9167 14.8333C15.9167 16.03 16.8867 17 18.0833 17C19.28 17 20.25 16.03 20.25 14.8333M15.9167 14.8333C15.9167 13.6367 16.8867 12.6667 18.0833 12.6667C19.28 12.6667 20.25 13.6367 20.25 14.8333" stroke="#A855F7" stroke-width="1.5"/>
</svg>
