<svg width="26" height="26" viewBox="0 0 26 26" fill="none" xmlns="http://www.w3.org/2000/svg">
<path d="M3.74402 7.84329L4.38714 8.22916L4.38714 8.22916L3.74402 7.84329ZM5.49015 4.93308L6.13327 5.31895L6.13327 5.31895L5.49015 4.93308ZM20.5098 4.93308L19.8667 5.31895L19.8667 5.31895L20.5098 4.93308ZM22.256 7.84329L21.6129 8.22916L22.256 7.84329ZM18.9324 3.35269L18.7042 4.06714L18.7042 4.06714L18.9324 3.35269ZM19.704 3.78956L20.1992 3.22633L20.1992 3.22633L19.704 3.78956ZM6.29602 3.78956L6.79127 4.35279L6.79127 4.35279L6.29602 3.78956ZM7.06762 3.35269L6.83946 2.63824L6.83946 2.63824L7.06762 3.35269ZM22.7216 8.91706L21.9814 9.03813L21.9814 9.03813L22.7216 8.91706ZM22.5968 8.46657L23.2938 8.18958L23.2938 8.18957L22.5968 8.46657ZM21.567 22.5138L21.2265 21.8456L21.2265 21.8456L21.567 22.5138ZM22.5138 21.567L21.8456 21.2265L21.8456 21.2265L22.5138 21.567ZM3.48615 21.567L2.8179 21.9075L2.8179 21.9075L3.48615 21.567ZM4.43302 22.5138L4.77351 21.8456L4.77351 21.8456L4.43302 22.5138ZM3.27841 8.91706L2.53825 8.796L2.53825 8.796L3.27841 8.91706ZM3.40319 8.46657L2.70622 8.18957L2.70622 8.18957L3.40319 8.46657ZM4.33333 7.91667C3.91912 7.91667 3.58333 8.25245 3.58333 8.66667C3.58333 9.08088 3.91912 9.41667 4.33333 9.41667V8.66667V7.91667ZM21.6667 9.41667C22.0809 9.41667 22.4167 9.08088 22.4167 8.66667C22.4167 8.25245 22.0809 7.91667 21.6667 7.91667V8.66667V9.41667ZM10.8333 12.25C10.4191 12.25 10.0833 12.5858 10.0833 13C10.0833 13.4142 10.4191 13.75 10.8333 13.75V13V12.25ZM15.1667 13.75C15.5809 13.75 15.9167 13.4142 15.9167 13C15.9167 12.5858 15.5809 12.25 15.1667 12.25V13V13.75ZM12.25 8.66667C12.25 9.08088 12.5858 9.41667 13 9.41667C13.4142 9.41667 13.75 9.08088 13.75 8.66667H13H12.25ZM13.75 3.25C13.75 2.83579 13.4142 2.5 13 2.5C12.5858 2.5 12.25 2.83579 12.25 3.25H13H13.75ZM3.25 9.62688H2.5V19.2833H3.25H4V9.62688H3.25ZM6.71667 22.75V23.5H19.2833V22.75V22H6.71667V22.75ZM22.75 19.2833H23.5V9.62688H22.75H22V19.2833H22.75ZM3.74402 7.84329L4.38714 8.22916L6.13327 5.31895L5.49015 4.93308L4.84703 4.54721L3.1009 7.45742L3.74402 7.84329ZM8.46279 3.25V4H17.5372V3.25V2.5H8.46279V3.25ZM20.5098 4.93308L19.8667 5.31895L21.6129 8.22916L22.256 7.84329L22.8991 7.45742L21.153 4.54721L20.5098 4.93308ZM17.5372 3.25V4C18.3025 4 18.5204 4.00843 18.7042 4.06714L18.9324 3.35269L19.1605 2.63824C18.7013 2.49157 18.2034 2.5 17.5372 2.5V3.25ZM20.5098 4.93308L21.153 4.54721C20.8102 3.97596 20.5613 3.54469 20.1992 3.22633L19.704 3.78956L19.2087 4.35279C19.3537 4.48025 19.473 4.66271 19.8667 5.31895L20.5098 4.93308ZM18.9324 3.35269L18.7042 4.06714C18.8903 4.12656 19.062 4.22381 19.2087 4.35279L19.704 3.78956L20.1992 3.22633C19.8972 2.96079 19.5436 2.76057 19.1605 2.63824L18.9324 3.35269ZM5.49015 4.93308L6.13327 5.31895C6.52701 4.66272 6.64632 4.48025 6.79127 4.35279L6.29602 3.78956L5.80077 3.22633C5.43872 3.54469 5.18978 3.97596 4.84703 4.54721L5.49015 4.93308ZM8.46279 3.25V2.5C7.79661 2.5 7.29872 2.49157 6.83946 2.63824L7.06762 3.35269L7.29578 4.06714C7.47964 4.00843 7.69749 4 8.46279 4V3.25ZM6.29602 3.78956L6.79127 4.35279C6.93795 4.22381 7.10972 4.12656 7.29578 4.06714L7.06762 3.35269L6.83946 2.63824C6.45639 2.76057 6.10276 2.96079 5.80077 3.22633L6.29602 3.78956ZM22.75 9.62688H23.5C23.5 9.29304 23.5023 9.04364 23.4618 8.796L22.7216 8.91706L21.9814 9.03813C21.9977 9.13791 22 9.24591 22 9.62688H22.75ZM22.256 7.84329L21.6129 8.22916C21.8089 8.55584 21.8625 8.64961 21.8998 8.74358L22.5968 8.46657L23.2938 8.18957C23.2011 7.95638 23.0709 7.74369 22.8991 7.45742L22.256 7.84329ZM22.7216 8.91706L23.4618 8.796C23.4278 8.58839 23.3715 8.38507 23.2938 8.18958L22.5968 8.46657L21.8998 8.74357C21.9376 8.83853 21.9649 8.93729 21.9814 9.03813L22.7216 8.91706ZM19.2833 22.75V23.5C19.8777 23.5 20.3685 23.5006 20.7675 23.468C21.1751 23.4347 21.5524 23.363 21.9075 23.1821L21.567 22.5138L21.2265 21.8456C21.1181 21.9008 20.9602 21.9472 20.6453 21.973C20.3217 21.9994 19.9024 22 19.2833 22V22.75ZM22.75 19.2833H22C22 19.9024 21.9994 20.3217 21.973 20.6453C21.9472 20.9602 21.9008 21.1181 21.8456 21.2265L22.5138 21.567L23.1821 21.9075C23.363 21.5524 23.4347 21.1751 23.468 20.7675C23.5006 20.3685 23.5 19.8777 23.5 19.2833H22.75ZM21.567 22.5138L21.9075 23.1821C22.4563 22.9025 22.9025 22.4563 23.1821 21.9075L22.5138 21.567L21.8456 21.2265C21.7098 21.4931 21.4931 21.7098 21.2265 21.8456L21.567 22.5138ZM3.25 19.2833H2.5C2.5 19.8777 2.49942 20.3685 2.53201 20.7675C2.56532 21.1751 2.63697 21.5524 2.8179 21.9075L3.48615 21.567L4.15441 21.2265C4.09918 21.1181 4.05276 20.9602 4.02703 20.6453C4.00058 20.3217 4 19.9024 4 19.2833H3.25ZM6.71667 22.75V22C6.09757 22 5.67835 21.9994 5.35468 21.973C5.03976 21.9472 4.8819 21.9008 4.77351 21.8456L4.43302 22.5138L4.09253 23.1821C4.44762 23.363 4.82485 23.4347 5.23253 23.468C5.63145 23.5006 6.12232 23.5 6.71667 23.5V22.75ZM3.48615 21.567L2.8179 21.9075C3.09753 22.4563 3.54372 22.9025 4.09253 23.1821L4.43302 22.5138L4.77351 21.8456C4.50695 21.7098 4.29023 21.4931 4.15441 21.2265L3.48615 21.567ZM3.25 9.62688H4C4 9.24591 4.00226 9.13791 4.01858 9.03813L3.27841 8.91706L2.53825 8.796C2.49774 9.04364 2.5 9.29304 2.5 9.62688H3.25ZM3.74402 7.84329L3.1009 7.45742C2.92915 7.74368 2.7989 7.95638 2.70622 8.18957L3.40319 8.46657L4.10016 8.74357C4.13751 8.64961 4.19114 8.55584 4.38714 8.22916L3.74402 7.84329ZM3.27841 8.91706L4.01858 9.03813C4.03507 8.93729 4.06243 8.83853 4.10016 8.74357L3.40319 8.46657L2.70622 8.18957C2.62852 8.38507 2.5722 8.58839 2.53825 8.796L3.27841 8.91706ZM4.33333 8.66667V9.41667H21.6667V8.66667V7.91667H4.33333V8.66667ZM10.8333 13V13.75H15.1667V13V12.25H10.8333V13ZM13 8.66667H13.75V3.25H13H12.25V8.66667H13Z" fill="#4FD1C5"/>
</svg>
