<svg width="26" height="26" viewBox="0 0 26 26" fill="none" xmlns="http://www.w3.org/2000/svg">
<path d="M16.2497 7.58366H18.5656C19.7023 7.58366 20.6457 8.46213 20.7267 9.59596L21.5005 20.4293C21.5901 21.6835 20.5968 22.7503 19.3394 22.7503H6.65994C5.40253 22.7503 4.4092 21.6835 4.49878 20.4293L5.27259 9.59596C5.35358 8.46213 6.29703 7.58366 7.43375 7.58366H9.74966M16.2497 7.58366H9.74966M16.2497 7.58366V5.41699C16.2497 3.62207 14.7946 2.16699 12.9997 2.16699C11.2047 2.16699 9.74966 3.62207 9.74966 5.41699V7.58366M16.2496 13.0003L12.0681 17.2138C11.9094 17.3736 11.6522 17.3736 11.4935 17.2138L9.74955 15.4564" stroke="#3A7BFF" stroke-width="1.5" stroke-linecap="round"/>
</svg>
