<svg width="19" height="19" viewBox="0 0 19 19" fill="none" xmlns="http://www.w3.org/2000/svg">
<path d="M16.625 6.74391V9.54075M4.5125 11.2888V14.2604C4.5125 14.4228 4.5125 14.5039 4.51936 14.5723C4.586 15.2362 5.12127 15.7615 5.79783 15.8269C5.8675 15.8337 5.95021 15.8337 6.11563 15.8337C6.28105 15.8337 6.36376 15.8337 6.43343 15.8269C7.10998 15.7615 7.64525 15.2362 7.71189 14.5723C7.71875 14.5039 7.71875 14.4228 7.71875 14.2604V11.2888M4.5125 11.2888C3.84853 11.2888 3.51655 11.2888 3.25468 11.1823C2.90551 11.0404 2.6281 10.7682 2.48347 10.4255C2.375 10.1685 2.375 9.84273 2.375 9.19115L2.375 8.35209C2.375 7.17731 2.375 6.58991 2.60797 6.1412C2.8129 5.74651 3.1399 5.42561 3.54209 5.2245C3.99933 4.99587 4.59789 4.99587 5.795 4.99587H7.71875M4.5125 11.2888H7.71875M7.71875 11.2888H8.25313C9.51171 11.2888 11.0513 11.9509 12.2391 12.5863C12.932 12.957 13.2785 13.1423 13.5054 13.115C13.7158 13.0897 13.8749 12.997 13.9982 12.8278C14.1313 12.6454 14.1313 12.2803 14.1313 11.5501V4.73457C14.1313 4.00439 14.1313 3.6393 13.9982 3.45683C13.8749 3.28763 13.7158 3.19491 13.5054 3.16962C13.2785 3.14235 12.932 3.32769 12.2391 3.69839C11.0513 4.3338 9.5117 4.99587 8.25312 4.99587H7.71875M7.71875 11.2888V4.99587" stroke="black" stroke-width="1.25" stroke-linecap="round" stroke-linejoin="round"/>
</svg>
