<svg width="60" height="26" viewBox="0 0 60 26" fill="none" xmlns="http://www.w3.org/2000/svg">
<path d="M8.02413 8.74566V20.727C8.02413 21.5244 8.06647 22.2022 8.15116 22.7538C8.23585 23.3053 8.41228 23.7572 8.6734 24.1094C8.93452 24.4616 9.29444 24.7075 9.75316 24.8603C10.2119 25.0131 10.7976 25.0929 11.5175 25.0929H12.1032V25.4318H0V25.0929H0.486952C1.2068 25.0929 1.78549 25.0131 2.2301 24.8603C2.67471 24.7075 3.02052 24.4549 3.27458 24.1094C3.52864 23.7638 3.69096 23.312 3.7827 22.7538C3.86739 22.2022 3.91679 21.5244 3.91679 20.727V8.74566H0.423437V8.22069H3.91679V7.20397C3.91679 5.97461 4.17085 4.81835 4.68604 3.73518C5.19416 2.65201 5.94223 1.78149 6.92319 1.12361C8.00296 0.472379 9.16035 0.106893 10.3883 0.0205052C11.6163 -0.0592373 12.6749 0.0936025 13.5712 0.479025C14.3333 0.824575 14.7709 1.24322 14.8909 1.72168C15.0108 2.20013 14.9473 2.59885 14.6933 2.91782C14.4463 3.23679 14.0863 3.40292 13.6135 3.42285C13.1477 3.44279 12.6961 3.17033 12.2585 2.5922C11.6304 1.79478 10.96 1.24987 10.2542 0.964125C9.5485 0.678381 8.94158 0.731542 8.44051 1.11696C8.15822 1.3429 7.98179 1.61536 7.90416 1.92768C7.82653 2.24665 7.79124 2.65201 7.80535 3.14375C7.81241 3.6355 7.85475 4.23357 7.91827 4.93796C7.98179 5.64235 8.01707 6.48629 8.01707 7.46978V8.2074H12.4843V8.73237H8.01707L8.02413 8.74566Z" fill="#133A1B"/>
<path d="M33.3601 8.2207H34.8633V20.2352C34.8633 21.0925 34.9338 21.8234 35.075 22.4149C35.2161 23.0129 35.4137 23.4847 35.6749 23.8436C35.936 24.2024 36.2536 24.4549 36.6205 24.6144C36.9875 24.7673 37.3898 24.847 37.8273 24.847C38.3496 24.847 38.8365 24.7274 39.2952 24.4749C39.754 24.229 40.1492 23.8901 40.4879 23.4582C40.8267 23.0262 41.0948 22.5212 41.3066 21.9364C41.5112 21.3516 41.6171 20.7004 41.6171 19.9894V12.9521C41.6171 12.1148 41.5677 11.4636 41.4689 11.005C41.3701 10.5465 41.236 10.2076 41.0596 10.0083C40.8831 9.80891 40.6644 9.69594 40.3891 9.68929C40.1139 9.676 39.8034 9.70258 39.4576 9.76904L38.9706 9.86207V9.52316L44.2212 8.23399H45.7244V20.7403C45.7244 22.2554 45.9009 23.2787 46.2608 23.8104C46.6207 24.342 47.1712 24.548 47.9051 24.4217L48.0674 24.3619L48.2298 24.3287L49.1119 24.116V24.4815L45.7174 25.4318H43.6919C43.1062 25.372 42.6475 25.1128 42.3228 24.6609C41.9982 24.2091 41.7653 23.4847 41.6383 22.4813C41.2713 23.4648 40.6855 24.2489 39.8951 24.8337C39.0976 25.4185 38.2014 25.7707 37.2063 25.897C36.2959 26.0365 35.442 26.0365 34.6586 25.8837C33.8753 25.7308 33.1907 25.4318 32.6049 24.9932C32.0192 24.5546 31.5605 23.9698 31.2358 23.2389C30.9112 22.5145 30.7489 21.6507 30.7489 20.6406V12.2876C30.7277 11.6961 30.6783 11.211 30.6007 10.8456C30.523 10.4801 30.4031 10.201 30.2266 10.0149C30.0502 9.82884 29.8244 9.71588 29.5421 9.676C29.2598 9.63613 28.8928 9.64278 28.4341 9.70923L27.4531 9.86207V9.52316L33.3601 8.23399V8.2207Z" fill="#133A1B"/>
<path d="M54.615 2.2002V8.22075H59.9997V8.74573H54.615V18.7601C54.615 19.8632 54.5868 20.7935 54.5374 21.5378C54.4809 22.282 54.4456 22.9 54.4245 23.3785C54.4033 23.8569 54.4104 24.2291 54.4598 24.4816C54.5092 24.7341 54.6362 24.9202 54.8479 25.0198C55.0455 25.1262 55.2361 25.1395 55.4195 25.0664C55.603 24.9933 55.8006 24.8604 56.0053 24.6676C56.21 24.4749 56.4217 24.2423 56.6405 23.9765C56.8592 23.7107 57.0851 23.425 57.325 23.1193C57.6285 22.7339 57.9743 22.5412 58.3554 22.5478C58.7365 22.5611 59.047 22.694 59.2869 22.9465C59.5269 23.2057 59.6539 23.538 59.661 23.9433C59.668 24.3553 59.4492 24.754 58.9905 25.1395C58.6659 25.4053 58.2848 25.598 57.8472 25.7242C57.4097 25.8438 56.9651 25.9169 56.5064 25.9369C56.0476 25.9568 55.596 25.9236 55.1373 25.8306C54.6785 25.7375 54.2763 25.598 53.9305 25.4186C53.3447 25.1328 52.8295 24.7673 52.399 24.3287C51.9615 23.8902 51.6086 23.4051 51.3193 22.8867C51.037 22.3618 50.8323 21.8235 50.6982 21.2587C50.5712 20.6938 50.5006 20.1356 50.5006 19.5841V8.74573H47.3672V8.22075H47.6918C48.2987 8.22075 48.948 8.12108 49.6326 7.92837C50.3171 7.73565 50.9664 7.40339 51.5733 6.94487C52.1803 6.48635 52.7166 5.86835 53.1753 5.10415C53.6341 4.33331 53.9234 3.36975 54.0575 2.2002H54.615Z" fill="#133A1B"/>
<path d="M20.1407 16.6068V21.1853C20.1619 22.5808 20.3807 23.5709 20.79 24.1624C21.1993 24.7538 21.9404 25.0661 23.006 25.086H23.3306V25.425H12.6953V25.086H12.8223C13.5422 25.086 14.1279 25.0063 14.5867 24.8535C15.0454 24.7006 15.3912 24.4481 15.6311 24.1026C15.8711 23.757 16.0334 23.3051 16.1181 22.7469C16.2028 22.1954 16.2451 21.5176 16.2451 20.7201V12.9785C16.224 12.3671 16.1675 11.8488 16.0828 11.4434C15.9981 11.0314 15.857 10.7058 15.6594 10.4599C15.4618 10.2141 15.2006 10.0612 14.876 10.0014C14.5514 9.94162 14.135 9.96156 13.6339 10.0612L12.7871 10.2739V9.93498L18.9551 8.21387H19.6397C19.7244 8.66574 19.8091 9.18407 19.8867 9.78214C19.9643 10.3802 20.0208 11.0181 20.0631 11.7159" fill="#133A1B"/>
<path d="M24.2355 11.1378C23.3886 11.5232 20.6504 11.4169 20.6504 11.4169C20.6504 11.4169 22.2383 9.31039 23.0852 8.92497C23.932 8.53955 26.1621 8.87846 26.1621 8.87846C26.1621 8.87846 25.0753 10.7524 24.2355 11.1378Z" fill="#133A1B"/>
</svg>
