<svg width="19" height="19" viewBox="0 0 19 19" fill="none" xmlns="http://www.w3.org/2000/svg">
<g clip-path="url(#clip0_1042_6056)">
<path d="M6.72917 4.75033V7.91699M14.51 11.8753L12.2708 14.1145M8.3125 11.8753L6.2174 13.9704C6.06281 14.125 5.81219 14.125 5.6576 13.9704L5.14583 13.4587M8.3125 6.33366H5.14583M14.51 14.1146L12.2708 11.8755M14.6458 6.33366H11.4792M7.52083 18.2087H12.2708C14.4877 18.2087 15.5961 18.2087 16.4429 17.7772C17.1877 17.3977 17.7932 16.7922 18.1727 16.0474C18.6042 15.2006 18.6042 14.0922 18.6042 11.8753V7.12533C18.6042 4.90845 18.6042 3.80001 18.1727 2.95328C17.7932 2.20847 17.1877 1.60292 16.4429 1.22342C15.5961 0.791992 14.4877 0.791992 12.2708 0.791992H7.52083C5.30396 0.791992 4.19552 0.791992 3.34879 1.22342C2.60398 1.60292 1.99843 2.20847 1.61893 2.95328C1.1875 3.80001 1.1875 4.90845 1.1875 7.12533V11.8753C1.1875 14.0922 1.1875 15.2006 1.61893 16.0474C1.99843 16.7922 2.60398 17.3977 3.34879 17.7772C4.19552 18.2087 5.30396 18.2087 7.52083 18.2087Z" stroke="black" stroke-width="1.25" stroke-linecap="round"/>
</g>
<defs>
<clipPath id="clip0_1042_6056">
<rect width="19" height="19" fill="white"/>
</clipPath>
</defs>
</svg>
