<svg width="19" height="19" viewBox="0 0 19 19" fill="none" xmlns="http://www.w3.org/2000/svg">
<path d="M4.74967 6.33366H7.12467M4.74967 9.50033H7.12467M4.74967 12.667H7.12467M4.11634 15.8337H14.883C15.7698 15.8337 16.2131 15.8337 16.5518 15.6611C16.8497 15.5093 17.092 15.2671 17.2438 14.9691C17.4163 14.6305 17.4163 14.1871 17.4163 13.3003V5.70033C17.4163 4.81358 17.4163 4.3702 17.2438 4.03151C17.092 3.73358 16.8497 3.49136 16.5518 3.33957C16.2131 3.16699 15.7698 3.16699 14.883 3.16699H4.11634C3.22959 3.16699 2.78622 3.16699 2.44752 3.33957C2.1496 3.49136 1.90738 3.73358 1.75558 4.03151C1.58301 4.3702 1.58301 4.81358 1.58301 5.70033V13.3003C1.58301 14.1871 1.58301 14.6305 1.75558 14.9691C1.90738 15.2671 2.1496 15.5093 2.44752 15.6611C2.78622 15.8337 3.22959 15.8337 4.11634 15.8337ZM10.9247 10.292H13.6163C13.838 10.292 13.9489 10.292 14.0335 10.2488C14.108 10.2109 14.1686 10.1503 14.2065 10.0759C14.2497 9.99119 14.2497 9.88035 14.2497 9.65866V6.96699C14.2497 6.7453 14.2497 6.63446 14.2065 6.54979C14.1686 6.47531 14.108 6.41475 14.0335 6.3768C13.9489 6.33366 13.838 6.33366 13.6163 6.33366H10.9247C10.703 6.33366 10.5921 6.33366 10.5075 6.3768C10.433 6.41475 10.3724 6.47531 10.3345 6.54979C10.2913 6.63446 10.2913 6.7453 10.2913 6.96699V9.65866C10.2913 9.88035 10.2913 9.99119 10.3345 10.0759C10.3724 10.1503 10.433 10.2109 10.5075 10.2488C10.5921 10.292 10.703 10.292 10.9247 10.292Z" stroke="black" stroke-width="1.25" stroke-linecap="round"/>
</svg>
