<svg width="19" height="19" viewBox="0 0 19 19" fill="none" xmlns="http://www.w3.org/2000/svg">
<path d="M2.375 3.16699H2.855C3.66299 3.16699 4.34137 3.77539 4.429 4.57862L5.071 10.4637C5.15863 11.2669 5.83701 11.8753 6.645 11.8753H13.4948C14.2185 11.8753 14.8502 11.3846 15.029 10.6832L16.1152 5.01903C16.1743 4.71074 15.9381 4.42486 15.6242 4.42486H4.40461M5.2446 14.7451H5.83835M5.2446 15.3388H5.83835M13.9529 14.7451H14.5467M13.9529 15.3388H14.5467M6.33333 15.042C6.33333 15.4792 5.97889 15.8337 5.54167 15.8337C5.10444 15.8337 4.75 15.4792 4.75 15.042C4.75 14.6048 5.10444 14.2503 5.54167 14.2503C5.97889 14.2503 6.33333 14.6048 6.33333 15.042ZM15.0417 15.042C15.0417 15.4792 14.6872 15.8337 14.25 15.8337C13.8128 15.8337 13.4583 15.4792 13.4583 15.042C13.4583 14.6048 13.8128 14.2503 14.25 14.2503C14.6872 14.2503 15.0417 14.6048 15.0417 15.042Z" stroke="black" stroke-width="1.25" stroke-linecap="round"/>
</svg>
