<svg width="19" height="19" viewBox="0 0 19 19" fill="none" xmlns="http://www.w3.org/2000/svg">
<path d="M12.0025 14.2497L9.95019 16.2979C9.33125 16.9156 8.32873 16.9146 7.71102 16.2956L2.04563 10.6189C1.42851 10.0005 1.42884 8.99916 2.04639 8.38121L4.08953 6.33672M12.0025 14.2497L16.2971 9.96362C16.5947 9.66659 16.762 9.26338 16.762 8.8429L16.762 3.16633C16.762 2.29188 16.0531 1.58301 15.1786 1.58301H9.49625C9.07614 1.58301 8.67325 1.74997 8.37629 2.04712L4.08953 6.33672M12.0025 14.2497L4.08953 6.33672M12.5066 5.24442H13.1003M12.5066 5.83817H13.1003M13.5953 5.54134C13.5953 5.97857 13.2409 6.33301 12.8037 6.33301C12.3664 6.33301 12.012 5.97857 12.012 5.54134C12.012 5.10412 12.3664 4.74967 12.8037 4.74967C13.2409 4.74967 13.5953 5.10412 13.5953 5.54134Z" stroke="black" stroke-linecap="round"/>
</svg>
