<svg width="18" height="18" viewBox="0 0 18 18" fill="none" xmlns="http://www.w3.org/2000/svg">
<path d="M8.54176 10.7187C10.4546 10.7187 12.0053 9.16807 12.0053 7.25521C12.0053 5.34235 10.4546 3.79167 8.54176 3.79167C6.6289 3.79167 5.07822 5.34235 5.07822 7.25521C5.07822 9.16807 6.6289 10.7187 8.54176 10.7187ZM8.54176 10.7187C11.2414 10.7187 13.4902 12.1665 13.983 14.0833M8.54176 10.7187C5.84214 10.7187 3.59337 12.1665 3.1005 14.0833M16.4583 8.54167C16.4583 12.9139 12.9139 16.4583 8.54167 16.4583C4.16941 16.4583 0.625 12.9139 0.625 8.54167C0.625 4.16941 4.16941 0.625 8.54167 0.625C12.9139 0.625 16.4583 4.16941 16.4583 8.54167Z" stroke="black" stroke-width="1.25" stroke-linecap="round"/>
</svg>
